<svg xmlns="http://www.w3.org/2000/svg" viewBox="0 0 243.41666 243.41667" height="920" width="920"><ellipse style="fill:#9cf;fill-opacity:1;stroke:none;stroke-width:.25801468;stroke-linecap:butt;stroke-linejoin:miter;stroke-miterlimit:4;stroke-dasharray:none;stroke-opacity:1;paint-order:markers stroke fill" cx="121.70833" cy="119.13801" rx="121.33035" ry="111.12499"/><path style="fill:#9cf;fill-opacity:1;stroke:none;stroke-width:.23997708;stroke-linecap:butt;stroke-linejoin:miter;stroke-miterlimit:4;stroke-dasharray:none;stroke-opacity:1;paint-order:markers stroke fill" d="m18.898809 237.06655 3.85585-82.35713 69.395439 44.51783z"/><text style="font-style:normal;font-weight:400;font-size:176.3888855px;line-height:1.25;font-family:sans-serif;letter-spacing:0;word-spacing:0;fill:#000;fill-opacity:1;stroke:none;stroke-width:.26458332" x="22.330833" y="192.08757"><tspan x="22.330833" y="192.08757" style="font-style:normal;font-variant:normal;font-weight:700;font-stretch:normal;font-size:200px;font-family:sans-serif;-inkscape-font-specification:'sans-serif Bold';stroke-width:.26458332">V</tspan></text><path style="stroke-width:6.61458492" d="m194.46899 197.11465c10.98.0 19.7775-8.8635 19.7775-19.84374l.075-39.68754c0-10.98025-8.8638-19.84375-19.8438-19.84375-10.98024.0-19.84376 8.8635-19.84376 19.84375v39.68754c0 10.98024 8.86352 19.84374 19.84376 19.84374zm35.05722-19.84374c0 19.84374-16.80102 33.73423-35.05722 33.73423-18.25628.0-35.05754-13.89049-35.05754-33.73423h-11.24478c0 22.55574 17.99178 41.20873 39.68756 44.44999v21.69576h13.22922V221.7209c21.69576-3.17502 39.68754-21.82825 39.68754-44.44999z"/></svg>