<svg version="1.0" xmlns="http://www.w3.org/2000/svg" width="920pt" height="920pt" viewBox="0 0 920 920"><g transform="translate(0.000000,920.000000) scale(0.100000,-0.100000)" fill="#000" stroke="none"><path d="M3785 8013c-530-44-1041-253-1462-599-106-87-317-293-354-346l-19-26 321-299c177-164 326-3e2 331-302 5-2 55 42 111 97 213 211 438 359 669 443 340 122 807 109 1103-32 252-119 388-316 402-584 9-169-36-297-155-446-87-110-194-205-521-467-457-365-638-561-755-813-78-168-119-4e2-1e2-564l9-80 515-3 516-2 1 122c2 148 23 242 87 373 103 214 262 376 691 705 453 347 611 508 734 750 88 172 116 318 108 558-9 256-56 447-163 652-145 279-358 478-679 635-247 121-529 195-865 225-105 9-428 11-525 3z"/><path d="M5940 3485v-415h-175-175v-185-185h174 175l4-907c3-614 8-929 16-973 62-355 185-518 457-603 150-47 261-58 642-64l352-6v207 206h-309c-449 0-546 24-612 152-53 104-53 92-56 1076l-4 912h496 495v185 185h-495-495v415 415h-245-245v-415z"/><path d="M3778 3279c-222-30-420-169-517-362-61-121-76-189-76-342 0-155 11-207 72-335 38-80 58-108 127-175 136-135 291-195 501-195 134 0 235 23 345 77 106 53 232 179 282 283 59 121 72 185 72 345 0 160-13 224-72 345-49 101-177 230-279 283-128 66-307 96-455 76z"/></g></svg>