<?xml version="1.0" standalone="no"?>
<!DOCTYPE svg PUBLIC "-//W3C//DTD SVG 20010904//EN"
 "http://www.w3.org/TR/2001/REC-SVG-20010904/DTD/svg10.dtd">
<svg version="1.0" xmlns="http://www.w3.org/2000/svg"
 width="920.000000pt" height="920.000000pt" viewBox="0 0 920.000000 920.000000"
 preserveAspectRatio="xMidYMid meet">
<metadata>
Created by potrace 1.11, written by Peter Selinger 2001-2013
</metadata>
<g transform="translate(0.000000,920.000000) scale(0.100000,-0.100000)"
fill="#000000" stroke="none">
<path d="M3785 8013 c-530 -44 -1041 -253 -1462 -599 -106 -87 -317 -293 -354
-346 l-19 -26 321 -299 c177 -164 326 -300 331 -302 5 -2 55 42 111 97 213
211 438 359 669 443 340 122 807 109 1103 -32 252 -119 388 -316 402 -584 9
-169 -36 -297 -155 -446 -87 -110 -194 -205 -521 -467 -457 -365 -638 -561
-755 -813 -78 -168 -119 -400 -100 -564 l9 -80 515 -3 516 -2 1 122 c2 148 23
242 87 373 103 214 262 376 691 705 453 347 611 508 734 750 88 172 116 318
108 558 -9 256 -56 447 -163 652 -145 279 -358 478 -679 635 -247 121 -529
195 -865 225 -105 9 -428 11 -525 3z"/>
<path d="M5940 3485 l0 -415 -175 0 -175 0 0 -185 0 -185 174 0 175 0 4 -907
c3 -614 8 -929 16 -973 62 -355 185 -518 457 -603 150 -47 261 -58 642 -64
l352 -6 0 207 0 206 -309 0 c-449 0 -546 24 -612 152 -53 104 -53 92 -56 1076
l-4 912 496 0 495 0 0 185 0 185 -495 0 -495 0 0 415 0 415 -245 0 -245 0 0
-415z"/>
<path d="M3778 3279 c-222 -30 -420 -169 -517 -362 -61 -121 -76 -189 -76
-342 0 -155 11 -207 72 -335 38 -80 58 -108 127 -175 136 -135 291 -195 501
-195 134 0 235 23 345 77 106 53 232 179 282 283 59 121 72 185 72 345 0 160
-13 224 -72 345 -49 101 -177 230 -279 283 -128 66 -307 96 -455 76z"/>
</g>
</svg>
